<?xml version="1.0" ?><!DOCTYPE svg  PUBLIC '-//W3C//DTD SVG 1.1//EN'  'http://www.w3.org/Graphics/SVG/1.1/DTD/svg11.dtd'><svg height="100%" style="fill-rule:evenodd;clip-rule:evenodd;stroke-linejoin:round;stroke-miterlimit:2;" version="1.1" viewBox="0 0 24 24" width="100%" xml:space="preserve" xmlns="http://www.w3.org/2000/svg" xmlns:serif="http://www.serif.com/" xmlns:xlink="http://www.w3.org/1999/xlink"><g id="Icon"><path d="M6.599,9.75l4.1,-6.151c0.291,-0.436 0.762,-0.719 1.284,-0.771c0.522,-0.052 1.039,0.133 1.41,0.504c0.063,0.064 0.128,0.129 0.195,0.195c1.39,1.39 1.78,3.492 0.982,5.288c-0.089,0.199 -0.176,0.396 -0.26,0.583c-0.034,0.078 -0.027,0.167 0.019,0.238c0.046,0.071 0.125,0.114 0.21,0.114c1.145,-0 2.73,-0 4.044,-0c0.82,-0 1.596,0.365 2.119,0.997c0.522,0.631 0.736,1.463 0.583,2.268c-0.378,1.984 -0.907,4.76 -1.239,6.5c-0.247,1.297 -1.381,2.235 -2.701,2.235l-12.345,0c-0.729,0 -1.429,-0.29 -1.945,-0.805c-0.515,-0.516 -0.805,-1.216 -0.805,-1.945c-0,-1.866 -0,-4.634 0,-6.5c-0,-0.729 0.29,-1.429 0.805,-1.945c0.516,-0.515 1.216,-0.805 1.945,-0.805l1.599,0Zm-0.349,1.5l-1.25,0c-0.332,0 -0.649,0.132 -0.884,0.366c-0.234,0.235 -0.366,0.552 -0.366,0.884c-0,1.866 -0,4.634 -0,6.5c-0,0.332 0.132,0.649 0.366,0.884c0.235,0.234 0.552,0.366 0.884,0.366l1.25,0l-0,-9Zm1.5,9l9.595,-0c0.6,-0 1.116,-0.427 1.228,-1.016c0.331,-1.74 0.86,-4.516 1.238,-6.5c0.07,-0.366 -0.027,-0.744 -0.265,-1.031c-0.237,-0.287 -0.59,-0.453 -0.963,-0.453c-1.314,-0 -2.899,-0 -4.044,0c-0.593,0 -1.145,-0.3 -1.468,-0.796c-0.322,-0.497 -0.372,-1.123 -0.131,-1.665c0.083,-0.187 0.17,-0.384 0.259,-0.583c0.546,-1.229 0.279,-2.667 -0.672,-3.618c-0.066,-0.067 -0.131,-0.132 -0.195,-0.195c-0.053,-0.053 -0.127,-0.08 -0.201,-0.072c-0.075,0.007 -0.142,0.048 -0.184,0.11l-4.197,6.296l-0,9.523Z"/></g></svg>